<?xml version="1.0" encoding="iso-8859-1"?>
<!-- Generator: Adobe Illustrator 19.0.0, SVG Export Plug-In . SVG Version: 6.00 Build 0)  -->
<svg version="1.1" id="Capa_1" xmlns="http://www.w3.org/2000/svg" xmlns:xlink="http://www.w3.org/1999/xlink" x="0px" y="0px"
	 viewBox="0 0 511.999 511.999" style="enable-background:new 0 0 511.999 511.999;" xml:space="preserve">
<path style="fill:#FF8A33;" d="M93.702,412.014c-12.714-25.725-21.988-58.898-21.304-100.593
	c0.626-38.115,10.158-75.541,26.253-110.097c7.65-16.423,35.304-77.996,36.512-80.641c1.293-2.83,5.923-13.48,6.651-23.361
	c0.285-3.873,4.614-6.029,7.804-3.814c13.777,9.565,39.36,31.57,40.594,63.755c0.171,4.455,5.564,6.542,8.614,3.291
	c18.824-20.062,57.485-72.331,31.946-142.8c-1.476-4.073,2.65-7.951,6.638-6.26c29.152,12.362,106.522,55.907,92.77,165.927
	c0,0-2.433,15.203-5.509,26.834c-1.138,4.302,3.5,7.797,7.349,5.561c12.641-7.343,31.389-24.82,27.845-63.045
	c-0.402-4.339,4.525-7.078,7.993-4.44c25.156,19.135,89.826,81.483,66.986,203.902c0,0-24.537,150.681-178.649,157.549
	c-0.118,0.005-0.232,0.014-0.349,0.029c-0.988,0.126-6.537,0.775-15.353,0.699C178.07,503.97,121.36,467.978,93.702,412.014z"/>
<path style="fill:#ED7829;" d="M434.845,346.233c0,0-24.556,150.801-178.84,157.556c0,0-8.99,1.257-23.549,0.469
	c-6.047-0.329-12.044-0.998-17.951-1.976c138.179-17.173,160.789-156.05,160.789-156.05c13.241-70.945-2.914-121.714-23.748-155.591
	c6.08-10.12,10.127-24.257,8.315-43.852c-0.402-4.348,4.518-7.1,7.994-4.457C393.013,161.469,457.686,223.819,434.845,346.233z"/>
<path d="M241.918,511.999c-2.934,0-6.24-0.076-9.872-0.273c-28.503-1.551-56.426-10.288-80.751-25.265
	c-24.379-15.012-44.717-36.034-58.813-60.795l0,0c-18.99-33.357-28.265-71.835-27.567-114.367
	c0.624-38.013,9.693-76.077,26.953-113.134c6.011-12.904,24.639-54.28,32.594-71.948c2.192-4.871,3.64-8.083,3.896-8.645
	c4.248-9.298,7.619-21.629,5.336-27.719c-0.313-0.836-0.444-1.738-0.267-2.613c1.183-5.844,6.846-7.965,11.063-5.747
	c0.62,0.326,15.355,8.163,29.161,22.786c10.758,11.395,17.993,23.79,21.54,36.72c1.105,4.028,6.303,5.083,8.814,1.746
	c4.598-6.109,9.414-13.442,13.704-21.855c18.193-35.68,18.791-73.059,1.775-111.086c-0.319-0.713-0.486-1.497-0.436-2.277
	c0.358-5.594,5.289-8.504,9.677-7.231c1.298,0.376,32.116,9.512,61.068,35.991c26.844,24.551,56.93,69.127,47.814,142.063
	c-0.011,0.085-0.023,0.17-0.037,0.254c-0.067,0.416-0.208,1.288-0.415,2.507c-0.957,5.635,6.743,8.184,9.368,3.108
	c5.515-10.663,8.5-25.984,4.294-47.813c-0.15-0.779-0.134-1.597,0.1-2.355c1.659-5.357,7.128-7.036,11.104-4.772
	c1.13,0.645,27.963,16.183,51.325,51.007c13.676,20.387,23.34,43.213,28.722,67.846c6.686,30.599,6.736,64.04,0.147,99.399
	c-0.44,2.64-7.066,40.225-32.687,79.069c-15.353,23.277-34.365,42.138-56.508,56.059c-27.532,17.309-59.895,26.925-96.204,28.586
	c-0.111,0.005-0.213,0.013-0.323,0.027C254.855,511.467,249.697,511.999,241.918,511.999z M105.489,418.261
	c26.336,46.259,73.951,75.613,127.37,78.52c13.533,0.736,22.04-0.392,22.124-0.404c0.227-0.031,0.468-0.053,0.696-0.063
	c61.452-2.689,109.01-28.917,141.356-77.955c24.263-36.783,30.365-72.967,30.425-73.329c0.009-0.057,0.019-0.113,0.029-0.17
	c11.297-60.549,2.357-113.114-26.571-156.236c-8.382-12.495-17.257-22.286-24.97-29.584c-3.077-2.912-8.106-0.883-8.401,3.343
	c-1.456,20.869-9.766,34.462-17.731,42.842c-12.191,12.824-26.229,16.446-26.82,16.594c-4.488,1.119-9.346-2.045-9.417-7.761
	c-0.01-0.827,0.236-1.632,0.645-2.351c2.922-5.127,6.816-24.556,8.55-35.344c6.644-53.402-7.85-96.813-43.08-129.033
	c-10.176-9.307-20.656-16.279-29.71-21.338c-3.804-2.126-8.27,1.336-7.251,5.573c9.756,40.556-0.367,74.138-11.966,96.667
	c-15.168,29.463-35.66,46.399-36.525,47.105c-3.721,3.041-9.75,2.034-12.009-3.508c-0.338-0.831-0.395-1.752-0.248-2.637
	c4.648-28.031-12.485-49.336-26.819-61.831c-2.769-2.414-7.092-1.064-8.072,2.477c-1.614,5.832-3.727,10.903-5.12,13.954
	c-0.256,0.559-1.689,3.742-3.862,8.569c-7.967,17.694-26.623,59.13-32.674,72.122c-16.369,35.141-24.966,71.161-25.556,107.06
	C79.228,351.36,87.843,387.264,105.489,418.261L105.489,418.261z"/>
<path style="fill:#FFD15C;" d="M174.57,413.006c-6.945-13.314-12.146-30.762-11.782-52.974c0.318-19.351,5.157-38.352,13.329-55.896
	c3.884-8.338,17.924-39.599,18.537-40.942c0.505-1.104,2.01-4.554,2.847-8.369c0.788-3.592,5.084-5.143,7.953-2.843
	c6.271,5.026,14.37,13.5,16.588,24.938c0.802,4.138,6.109,5.397,8.762,2.121c9.448-11.664,22.294-34.03,14.036-63.017
	c-1.192-4.183,3.224-7.733,7.097-5.753c17.146,8.763,47.977,31.72,41.726,81.728c0,0-0.513,3.205-1.295,7.064
	c-0.985,4.858,5,8.096,8.431,4.517c4.253-4.437,8.057-11.381,8.156-22.047c0.039-4.277,5.074-6.527,8.283-3.699
	c14.538,12.812,39.98,44.034,29.563,99.872c0,0-12.449,76.448-90.619,79.984c-0.107,0.005-0.211,0.013-0.317,0.026
	c-0.671,0.083-3.736,0.421-8.494,0.337C216.734,457.518,188.741,440.174,174.57,413.006z"/>
<path style="fill:#E8B44D;" d="M346.797,377.704c0,0-12.463,76.563-90.792,79.996c0,0-4.57,0.639-11.954,0.229
	c-3.971-0.22-7.893-0.718-11.734-1.477c67.094-10.557,78.189-78.748,78.189-78.748c6.157-32.958-0.2-57.345-9.43-74.428
	c4.141-4.446,7.781-11.312,7.881-21.732c0.041-4.283,5.071-6.544,8.284-3.711C331.779,290.645,357.218,321.868,346.797,377.704z"/>
<path d="M248.888,465.551c-1.56,0-3.316-0.04-5.247-0.146c-30.97-1.685-58.579-18.713-73.857-45.549
	c-9.972-17.516-14.844-37.685-14.478-59.947c0.325-19.82,5.045-39.647,14.028-58.933c3.043-6.533,12.495-27.527,16.532-36.492
	c1.117-2.48,1.852-4.115,1.983-4.402c2.506-5.488,3.279-10.544,2.433-11.588c-0.266-0.328-0.467-0.702-0.443-1.124
	c0.4-7.032,6.685-9.744,11.265-7.334c0.997,0.525,18.395,9.884,25.763,27.115c0.574,1.343,2.435,1.468,3.218,0.235
	c8.296-13.067,15.6-34.026,3.577-59.942c-0.103-0.222-0.168-0.469-0.175-0.713c-0.181-6.217,5.058-9.542,9.693-8.196
	c0.693,0.201,17.139,5.075,32.465,19.092c10.23,9.356,21.349,24.163,25.046,46.015c0.229,1.352,1.773,1.942,2.887,1.142
	c0.01-0.007,0.02-0.015,0.03-0.022c2.374-1.69,5.512-1.848,8.045-0.405c0.604,0.344,14.955,8.653,27.292,27.044
	c11.263,16.788,23.042,45.612,15.226,87.608c-0.3,1.766-3.861,21.383-17.148,41.527c-12.701,19.256-36.94,42.599-80.328,44.621
	c-0.035,0.002-0.065,0.004-0.099,0.008C255.545,465.289,252.854,465.551,248.888,465.551z M182.79,412.452
	c12.749,22.392,35.8,36.601,61.663,38.009c6.459,0.351,10.501-0.173,10.54-0.178c0.219-0.029,0.464-0.052,0.684-0.061
	c29.758-1.302,52.824-13.913,68.558-37.483c12.034-18.027,15.151-36.07,15.182-36.25c0.008-0.047,0.019-0.109,0.027-0.155
	c8.308-44.533-7.727-72.184-20.793-86.582c-1.005-1.107-2.847-0.614-3.145,0.851c-3.529,17.31-16.36,25.454-24.599,27.514
	c-4.878,1.217-10.199-2.631-9.311-9.303c0.047-0.35,0.272-0.628,0.524-0.875c0.982-0.964,3.014-10.054,4.133-16.994
	c3.197-25.829-3.77-46.779-20.71-62.271c-2.869-2.624-5.781-4.862-8.573-6.756c-1.324-0.898-3.058,0.233-2.822,1.816
	c2.787,18.679-2.132,34.2-7.684,44.982c-8.049,15.632-19.026,24.704-19.489,25.082c-3.948,3.226-10.495,1.894-12.379-4.572
	c-0.083-0.283-0.082-0.592-0.021-0.881c2.303-10.907-2.96-19.754-8.723-25.834c-0.933-0.984-2.567-0.667-3.052,0.599
	c-0.457,1.194-0.92,2.272-1.34,3.194c-0.13,0.285-0.853,1.89-1.949,4.326c-4.049,8.991-13.529,30.047-16.612,36.667
	c-8.091,17.369-12.34,35.153-12.631,52.859C169.95,379.701,174.162,397.296,182.79,412.452z"/>
<g>
</g>
<g>
</g>
<g>
</g>
<g>
</g>
<g>
</g>
<g>
</g>
<g>
</g>
<g>
</g>
<g>
</g>
<g>
</g>
<g>
</g>
<g>
</g>
<g>
</g>
<g>
</g>
<g>
</g>
</svg>
